<svg xmlns="http://www.w3.org/2000/svg" width="1160" height="500" viewBox="0 0 1160 500" font-family="DejaVu Sans, Arial, sans-serif" font-size="11">
<rect x="0" y="0" width="1160" height="500" fill="white"/>
<text x="10" y="20" font-size="14" font-weight="bold">Надёжность скора критерия hip_pos (OOF) — Некорректная укладка (бедро)</text>
<text x="70" y="40" font-size="12">ранговый скор (сравнивается с порогом)</text>
<text x="70" y="56" font-size="10" fill="#444">n=329, положительных 79 (24 исследований)</text>
<text x="70" y="69" font-size="10" fill="#444">ECE10 0.261 [0.18; 0.34]; Brier 0.233 [0.201; 0.267]</text>
<rect x="70" y="84" width="250" height="250" fill="none" stroke="#333"/>
<line x1="120.0" y1="84" x2="120.0" y2="334" stroke="#eee"/>
<line x1="70" y1="284.0" x2="320" y2="284.0" stroke="#eee"/>
<text x="120.0" y="346" text-anchor="middle" font-size="9">0.2</text>
<text x="66" y="287.0" text-anchor="end" font-size="9">0.2</text>
<line x1="170.0" y1="84" x2="170.0" y2="334" stroke="#eee"/>
<line x1="70" y1="234.0" x2="320" y2="234.0" stroke="#eee"/>
<text x="170.0" y="346" text-anchor="middle" font-size="9">0.4</text>
<text x="66" y="237.0" text-anchor="end" font-size="9">0.4</text>
<line x1="220.0" y1="84" x2="220.0" y2="334" stroke="#eee"/>
<line x1="70" y1="184.0" x2="320" y2="184.0" stroke="#eee"/>
<text x="220.0" y="346" text-anchor="middle" font-size="9">0.6</text>
<text x="66" y="187.0" text-anchor="end" font-size="9">0.6</text>
<line x1="270.0" y1="84" x2="270.0" y2="334" stroke="#eee"/>
<line x1="70" y1="134.0" x2="320" y2="134.0" stroke="#eee"/>
<text x="270.0" y="346" text-anchor="middle" font-size="9">0.8</text>
<text x="66" y="137.0" text-anchor="end" font-size="9">0.8</text>
<line x1="70" y1="334" x2="320" y2="84" stroke="#999" stroke-dasharray="4 3"/>
<polyline points="116.6,318.8 168.2,303.7 197.7,262.0 222.8,271.5 266.6,216.1" fill="none" stroke="#d9541e" stroke-width="1.5"/>
<rect x="112.6" y="314.8" width="8" height="8" fill="#d9541e" stroke="white"/>
<rect x="164.2" y="299.7" width="8" height="8" fill="#d9541e" stroke="white"/>
<rect x="193.7" y="258.0" width="8" height="8" fill="#d9541e" stroke="white"/>
<rect x="218.8" y="267.5" width="8" height="8" fill="#d9541e" stroke="white"/>
<rect x="262.6" y="212.1" width="8" height="8" fill="#d9541e" stroke="white"/>
<circle cx="88.1" cy="334.0" r="6.3" fill="#1f6fb2" fill-opacity="0.55" stroke="#1f6fb2"/>
<text x="96.4" y="337.0" font-size="8" fill="#1f6fb2">6</text>
<circle cx="105.5" cy="334.0" r="10.3" fill="#1f6fb2" fill-opacity="0.55" stroke="#1f6fb2"/>
<text x="117.8" y="337.0" font-size="8" fill="#1f6fb2">29</text>
<circle cx="130.2" cy="297.0" r="10.0" fill="#1f6fb2" fill-opacity="0.55" stroke="#1f6fb2"/>
<text x="142.3" y="300.0" font-size="8" fill="#1f6fb2">27</text>
<circle cx="158.1" cy="298.3" r="11.8" fill="#1f6fb2" fill-opacity="0.55" stroke="#1f6fb2"/>
<text x="171.9" y="301.3" font-size="8" fill="#1f6fb2">42</text>
<circle cx="186.0" cy="286.8" r="12.9" fill="#1f6fb2" fill-opacity="0.55" stroke="#1f6fb2"/>
<text x="200.9" y="289.8" font-size="8" fill="#1f6fb2">53</text>
<circle cx="207.7" cy="262.0" r="14.0" fill="#1f6fb2" fill-opacity="0.55" stroke="#1f6fb2"/>
<text x="223.7" y="265.0" font-size="8" fill="#1f6fb2">66</text>
<circle cx="233.0" cy="271.5" r="12.4" fill="#1f6fb2" fill-opacity="0.55" stroke="#1f6fb2"/>
<text x="247.4" y="274.5" font-size="8" fill="#1f6fb2">48</text>
<circle cx="256.2" cy="266.7" r="9.9" fill="#1f6fb2" fill-opacity="0.55" stroke="#1f6fb2"/>
<text x="268.1" y="269.7" font-size="8" fill="#1f6fb2">26</text>
<circle cx="275.3" cy="181.8" r="9.5" fill="#1f6fb2" fill-opacity="0.55" stroke="#1f6fb2"/>
<text x="286.8" y="184.8" font-size="8" fill="#1f6fb2">23</text>
<circle cx="309.9" cy="139.6" r="7.1" fill="#1f6fb2" fill-opacity="0.55" stroke="#1f6fb2"/>
<text x="319.0" y="142.6" font-size="8" fill="#1f6fb2">9</text>
<text x="195.0" y="358" text-anchor="middle" font-size="10">средняя предсказанная вероятность</text>
<text transform="translate(30,209.0) rotate(-90)" text-anchor="middle" font-size="10">доля положительных</text>
<rect x="71.0" y="422.5" width="23.0" height="5.5" fill="#888"/>
<rect x="96.0" y="401.6" width="23.0" height="26.4" fill="#888"/>
<rect x="121.0" y="403.5" width="23.0" height="24.5" fill="#888"/>
<rect x="146.0" y="389.8" width="23.0" height="38.2" fill="#888"/>
<rect x="171.0" y="379.8" width="23.0" height="48.2" fill="#888"/>
<rect x="196.0" y="368.0" width="23.0" height="60.0" fill="#888"/>
<rect x="221.0" y="384.4" width="23.0" height="43.6" fill="#888"/>
<rect x="246.0" y="404.4" width="23.0" height="23.6" fill="#888"/>
<rect x="271.0" y="407.1" width="23.0" height="20.9" fill="#888"/>
<rect x="296.0" y="419.8" width="23.0" height="8.2" fill="#888"/>
<line x1="70" y1="428" x2="320" y2="428" stroke="#333"/>
<text x="70" y="440" font-size="9" fill="#444">наклон 0.89, сдвиг -1.36; MCE10 0.475; лог-лосс 0.658; AUC 0.725</text>
<text x="450" y="40" font-size="12">Platt из calibration.pkl (in-sample)</text>
<text x="450" y="56" font-size="10" fill="#444">n=329, положительных 79 (24 исследований)</text>
<text x="450" y="69" font-size="10" fill="#444">ECE10 0.041 [0.04; 0.14]; Brier 0.159 [0.118; 0.208]</text>
<rect x="450" y="84" width="250" height="250" fill="none" stroke="#333"/>
<line x1="500.0" y1="84" x2="500.0" y2="334" stroke="#eee"/>
<line x1="450" y1="284.0" x2="700" y2="284.0" stroke="#eee"/>
<text x="500.0" y="346" text-anchor="middle" font-size="9">0.2</text>
<text x="446" y="287.0" text-anchor="end" font-size="9">0.2</text>
<line x1="550.0" y1="84" x2="550.0" y2="334" stroke="#eee"/>
<line x1="450" y1="234.0" x2="700" y2="234.0" stroke="#eee"/>
<text x="550.0" y="346" text-anchor="middle" font-size="9">0.4</text>
<text x="446" y="237.0" text-anchor="end" font-size="9">0.4</text>
<line x1="600.0" y1="84" x2="600.0" y2="334" stroke="#eee"/>
<line x1="450" y1="184.0" x2="700" y2="184.0" stroke="#eee"/>
<text x="600.0" y="346" text-anchor="middle" font-size="9">0.6</text>
<text x="446" y="187.0" text-anchor="end" font-size="9">0.6</text>
<line x1="650.0" y1="84" x2="650.0" y2="334" stroke="#eee"/>
<line x1="450" y1="134.0" x2="700" y2="134.0" stroke="#eee"/>
<text x="650.0" y="346" text-anchor="middle" font-size="9">0.8</text>
<text x="446" y="137.0" text-anchor="end" font-size="9">0.8</text>
<line x1="450" y1="334" x2="700" y2="84" stroke="#999" stroke-dasharray="4 3"/>
<polyline points="465.5,318.8 484.6,303.7 502.7,262.0 523.8,271.5 568.8,216.1" fill="none" stroke="#d9541e" stroke-width="1.5"/>
<rect x="461.5" y="314.8" width="8" height="8" fill="#d9541e" stroke="white"/>
<rect x="480.6" y="299.7" width="8" height="8" fill="#d9541e" stroke="white"/>
<rect x="498.7" y="258.0" width="8" height="8" fill="#d9541e" stroke="white"/>
<rect x="519.8" y="267.5" width="8" height="8" fill="#d9541e" stroke="white"/>
<rect x="564.8" y="212.1" width="8" height="8" fill="#d9541e" stroke="white"/>
<circle cx="465.3" cy="318.6" r="12.6" fill="#1f6fb2" fill-opacity="0.55" stroke="#1f6fb2"/>
<text x="479.9" y="321.6" font-size="8" fill="#1f6fb2">65</text>
<circle cx="487.5" cy="293.3" r="14.0" fill="#1f6fb2" fill-opacity="0.55" stroke="#1f6fb2"/>
<text x="503.5" y="296.3" font-size="8" fill="#1f6fb2">86</text>
<circle cx="509.9" cy="258.7" r="13.1" fill="#1f6fb2" fill-opacity="0.55" stroke="#1f6fb2"/>
<text x="525.0" y="261.7" font-size="8" fill="#1f6fb2">73</text>
<circle cx="534.8" cy="281.1" r="11.6" fill="#1f6fb2" fill-opacity="0.55" stroke="#1f6fb2"/>
<text x="548.4" y="284.1" font-size="8" fill="#1f6fb2">52</text>
<circle cx="563.6" cy="221.9" r="9.4" fill="#1f6fb2" fill-opacity="0.55" stroke="#1f6fb2"/>
<text x="575.0" y="224.9" font-size="8" fill="#1f6fb2">29</text>
<circle cx="581.0" cy="200.7" r="7.6" fill="#1f6fb2" fill-opacity="0.55" stroke="#1f6fb2"/>
<text x="590.6" y="203.7" font-size="8" fill="#1f6fb2">15</text>
<circle cx="615.2" cy="139.6" r="6.6" fill="#1f6fb2" fill-opacity="0.55" stroke="#1f6fb2"/>
<text x="623.8" y="142.6" font-size="8" fill="#1f6fb2">9</text>
<text x="575.0" y="358" text-anchor="middle" font-size="10">средняя предсказанная вероятность</text>
<text transform="translate(410,209.0) rotate(-90)" text-anchor="middle" font-size="10">доля положительных</text>
<rect x="451.0" y="382.7" width="23.0" height="45.3" fill="#888"/>
<rect x="476.0" y="368.0" width="23.0" height="60.0" fill="#888"/>
<rect x="501.0" y="377.1" width="23.0" height="50.9" fill="#888"/>
<rect x="526.0" y="391.7" width="23.0" height="36.3" fill="#888"/>
<rect x="551.0" y="407.8" width="23.0" height="20.2" fill="#888"/>
<rect x="576.0" y="417.5" width="23.0" height="10.5" fill="#888"/>
<rect x="601.0" y="421.7" width="23.0" height="6.3" fill="#888"/>
<rect x="626.0" y="428.0" width="23.0" height="0.0" fill="#888"/>
<rect x="651.0" y="428.0" width="23.0" height="0.0" fill="#888"/>
<rect x="676.0" y="428.0" width="23.0" height="0.0" fill="#888"/>
<line x1="450" y1="428" x2="700" y2="428" stroke="#333"/>
<text x="450" y="440" font-size="9" fill="#444">наклон 1.00, сдвиг 0.00; MCE10 0.128; лог-лосс 0.487; AUC 0.725</text>
<text x="830" y="40" font-size="12">Platt cross-fit (GroupKFold 5, зерно 0)</text>
<text x="830" y="56" font-size="10" fill="#444">n=329, положительных 79 (24 исследований)</text>
<text x="830" y="69" font-size="10" fill="#444">ECE10 0.061 [0.04; 0.16]; Brier 0.167 [0.124; 0.217]</text>
<rect x="830" y="84" width="250" height="250" fill="none" stroke="#333"/>
<line x1="880.0" y1="84" x2="880.0" y2="334" stroke="#eee"/>
<line x1="830" y1="284.0" x2="1080" y2="284.0" stroke="#eee"/>
<text x="880.0" y="346" text-anchor="middle" font-size="9">0.2</text>
<text x="826" y="287.0" text-anchor="end" font-size="9">0.2</text>
<line x1="930.0" y1="84" x2="930.0" y2="334" stroke="#eee"/>
<line x1="830" y1="234.0" x2="1080" y2="234.0" stroke="#eee"/>
<text x="930.0" y="346" text-anchor="middle" font-size="9">0.4</text>
<text x="826" y="237.0" text-anchor="end" font-size="9">0.4</text>
<line x1="980.0" y1="84" x2="980.0" y2="334" stroke="#eee"/>
<line x1="830" y1="184.0" x2="1080" y2="184.0" stroke="#eee"/>
<text x="980.0" y="346" text-anchor="middle" font-size="9">0.6</text>
<text x="826" y="187.0" text-anchor="end" font-size="9">0.6</text>
<line x1="1030.0" y1="84" x2="1030.0" y2="334" stroke="#eee"/>
<line x1="830" y1="134.0" x2="1080" y2="134.0" stroke="#eee"/>
<text x="1030.0" y="346" text-anchor="middle" font-size="9">0.8</text>
<text x="826" y="137.0" text-anchor="end" font-size="9">0.8</text>
<line x1="830" y1="334" x2="1080" y2="84" stroke="#999" stroke-dasharray="4 3"/>
<polyline points="844.7,310.2 863.1,289.9 882.3,289.6 904.4,259.0 951.8,224.2" fill="none" stroke="#d9541e" stroke-width="1.5"/>
<rect x="840.7" y="306.2" width="8" height="8" fill="#d9541e" stroke="white"/>
<rect x="859.1" y="285.9" width="8" height="8" fill="#d9541e" stroke="white"/>
<rect x="878.3" y="285.6" width="8" height="8" fill="#d9541e" stroke="white"/>
<rect x="900.4" y="255.0" width="8" height="8" fill="#d9541e" stroke="white"/>
<rect x="947.8" y="220.2" width="8" height="8" fill="#d9541e" stroke="white"/>
<circle cx="845.4" cy="312.6" r="12.9" fill="#1f6fb2" fill-opacity="0.55" stroke="#1f6fb2"/>
<text x="860.4" y="315.6" font-size="8" fill="#1f6fb2">70</text>
<circle cx="868.2" cy="284.6" r="14.0" fill="#1f6fb2" fill-opacity="0.55" stroke="#1f6fb2"/>
<text x="884.2" y="287.6" font-size="8" fill="#1f6fb2">86</text>
<circle cx="892.0" cy="279.5" r="13.5" fill="#1f6fb2" fill-opacity="0.55" stroke="#1f6fb2"/>
<text x="907.5" y="282.5" font-size="8" fill="#1f6fb2">78</text>
<circle cx="917.9" cy="268.5" r="10.7" fill="#1f6fb2" fill-opacity="0.55" stroke="#1f6fb2"/>
<text x="930.6" y="271.5" font-size="8" fill="#1f6fb2">42</text>
<circle cx="942.3" cy="186.9" r="9.9" fill="#1f6fb2" fill-opacity="0.55" stroke="#1f6fb2"/>
<text x="954.2" y="189.9" font-size="8" fill="#1f6fb2">34</text>
<circle cx="965.5" cy="234.0" r="5.7" fill="#1f6fb2" fill-opacity="0.55" stroke="#1f6fb2"/>
<text x="973.2" y="237.0" font-size="8" fill="#1f6fb2">5</text>
<circle cx="986.9" cy="209.0" r="7.1" fill="#1f6fb2" fill-opacity="0.55" stroke="#1f6fb2"/>
<text x="996.0" y="212.0" font-size="8" fill="#1f6fb2">12</text>
<circle cx="1025.3" cy="334.0" r="4.2" fill="#1f6fb2" fill-opacity="0.55" stroke="#1f6fb2"/>
<text x="1031.5" y="337.0" font-size="8" fill="#1f6fb2">1</text>
<circle cx="1030.8" cy="334.0" r="4.2" fill="#1f6fb2" fill-opacity="0.55" stroke="#1f6fb2"/>
<text x="1037.0" y="337.0" font-size="8" fill="#1f6fb2">1</text>
<text x="955.0" y="358" text-anchor="middle" font-size="10">средняя предсказанная вероятность</text>
<text transform="translate(790,209.0) rotate(-90)" text-anchor="middle" font-size="10">доля положительных</text>
<rect x="831.0" y="379.2" width="23.0" height="48.8" fill="#888"/>
<rect x="856.0" y="368.0" width="23.0" height="60.0" fill="#888"/>
<rect x="881.0" y="373.6" width="23.0" height="54.4" fill="#888"/>
<rect x="906.0" y="398.7" width="23.0" height="29.3" fill="#888"/>
<rect x="931.0" y="404.3" width="23.0" height="23.7" fill="#888"/>
<rect x="956.0" y="424.5" width="23.0" height="3.5" fill="#888"/>
<rect x="981.0" y="419.6" width="23.0" height="8.4" fill="#888"/>
<rect x="1006.0" y="427.3" width="23.0" height="0.7" fill="#888"/>
<rect x="1031.0" y="427.3" width="23.0" height="0.7" fill="#888"/>
<rect x="1056.0" y="428.0" width="23.0" height="0.0" fill="#888"/>
<line x1="830" y1="428" x2="1080" y2="428" stroke="#333"/>
<text x="830" y="440" font-size="9" fill="#444">наклон 0.77, сдвиг -0.23; MCE10 0.803; лог-лосс 0.511; AUC 0.701</text>
<text x="10" y="494" font-size="9" fill="#666">круги — 10 бинов равной ширины (число = n в бине); квадраты — 5 квантильных бинов; пунктир — идеальная калибровка; внизу — распределение предсказаний</text>
</svg>