<svg xmlns="http://www.w3.org/2000/svg" width="1160" height="500" viewBox="0 0 1160 500" font-family="DejaVu Sans, Arial, sans-serif" font-size="11">
<rect x="0" y="0" width="1160" height="500" fill="white"/>
<text x="10" y="20" font-size="14" font-weight="bold">Надёжность скора критерия sp_pos (OOF) — Некорректная укладка (позвоночник)</text>
<text x="70" y="40" font-size="12">ранговый скор (сравнивается с порогом)</text>
<text x="70" y="56" font-size="10" fill="#444">n=166, положительных 10 (6 исследований)</text>
<text x="70" y="69" font-size="10" fill="#444">ECE10 0.443 [0.38; 0.51]; Brier 0.266 [0.208; 0.335]</text>
<rect x="70" y="84" width="250" height="250" fill="none" stroke="#333"/>
<line x1="120.0" y1="84" x2="120.0" y2="334" stroke="#eee"/>
<line x1="70" y1="284.0" x2="320" y2="284.0" stroke="#eee"/>
<text x="120.0" y="346" text-anchor="middle" font-size="9">0.2</text>
<text x="66" y="287.0" text-anchor="end" font-size="9">0.2</text>
<line x1="170.0" y1="84" x2="170.0" y2="334" stroke="#eee"/>
<line x1="70" y1="234.0" x2="320" y2="234.0" stroke="#eee"/>
<text x="170.0" y="346" text-anchor="middle" font-size="9">0.4</text>
<text x="66" y="237.0" text-anchor="end" font-size="9">0.4</text>
<line x1="220.0" y1="84" x2="220.0" y2="334" stroke="#eee"/>
<line x1="70" y1="184.0" x2="320" y2="184.0" stroke="#eee"/>
<text x="220.0" y="346" text-anchor="middle" font-size="9">0.6</text>
<text x="66" y="187.0" text-anchor="end" font-size="9">0.6</text>
<line x1="270.0" y1="84" x2="270.0" y2="334" stroke="#eee"/>
<line x1="70" y1="134.0" x2="320" y2="134.0" stroke="#eee"/>
<text x="270.0" y="346" text-anchor="middle" font-size="9">0.8</text>
<text x="66" y="137.0" text-anchor="end" font-size="9">0.8</text>
<line x1="70" y1="334" x2="320" y2="84" stroke="#999" stroke-dasharray="4 3"/>
<polyline points="113.0,334.0 163.9,334.0 193.0,334.0 228.7,311.3 275.3,284.0" fill="none" stroke="#d9541e" stroke-width="1.5"/>
<rect x="109.0" y="330.0" width="8" height="8" fill="#d9541e" stroke="white"/>
<rect x="159.9" y="330.0" width="8" height="8" fill="#d9541e" stroke="white"/>
<rect x="189.0" y="330.0" width="8" height="8" fill="#d9541e" stroke="white"/>
<rect x="224.7" y="307.3" width="8" height="8" fill="#d9541e" stroke="white"/>
<rect x="271.3" y="280.0" width="8" height="8" fill="#d9541e" stroke="white"/>
<circle cx="87.9" cy="334.0" r="8.1" fill="#1f6fb2" fill-opacity="0.55" stroke="#1f6fb2"/>
<text x="98.0" y="337.0" font-size="8" fill="#1f6fb2">8</text>
<circle cx="114.6" cy="334.0" r="9.3" fill="#1f6fb2" fill-opacity="0.55" stroke="#1f6fb2"/>
<text x="125.8" y="337.0" font-size="8" fill="#1f6fb2">12</text>
<circle cx="128.9" cy="334.0" r="10.0" fill="#1f6fb2" fill-opacity="0.55" stroke="#1f6fb2"/>
<text x="140.9" y="337.0" font-size="8" fill="#1f6fb2">15</text>
<circle cx="155.0" cy="334.0" r="9.3" fill="#1f6fb2" fill-opacity="0.55" stroke="#1f6fb2"/>
<text x="166.3" y="337.0" font-size="8" fill="#1f6fb2">12</text>
<circle cx="178.0" cy="334.0" r="14.0" fill="#1f6fb2" fill-opacity="0.55" stroke="#1f6fb2"/>
<text x="194.0" y="337.0" font-size="8" fill="#1f6fb2">37</text>
<circle cx="208.9" cy="298.3" r="11.3" fill="#1f6fb2" fill-opacity="0.55" stroke="#1f6fb2"/>
<text x="222.2" y="301.3" font-size="8" fill="#1f6fb2">21</text>
<circle cx="232.4" cy="334.0" r="12.7" fill="#1f6fb2" fill-opacity="0.55" stroke="#1f6fb2"/>
<text x="247.2" y="337.0" font-size="8" fill="#1f6fb2">29</text>
<circle cx="258.2" cy="334.0" r="9.5" fill="#1f6fb2" fill-opacity="0.55" stroke="#1f6fb2"/>
<text x="269.7" y="337.0" font-size="8" fill="#1f6fb2">13</text>
<circle cx="285.5" cy="295.5" r="9.5" fill="#1f6fb2" fill-opacity="0.55" stroke="#1f6fb2"/>
<text x="297.1" y="298.5" font-size="8" fill="#1f6fb2">13</text>
<circle cx="306.9" cy="125.7" r="7.4" fill="#1f6fb2" fill-opacity="0.55" stroke="#1f6fb2"/>
<text x="316.4" y="128.7" font-size="8" fill="#1f6fb2">6</text>
<text x="195.0" y="358" text-anchor="middle" font-size="10">средняя предсказанная вероятность</text>
<text transform="translate(30,209.0) rotate(-90)" text-anchor="middle" font-size="10">доля положительных</text>
<rect x="71.0" y="415.0" width="23.0" height="13.0" fill="#888"/>
<rect x="96.0" y="408.5" width="23.0" height="19.5" fill="#888"/>
<rect x="121.0" y="403.7" width="23.0" height="24.3" fill="#888"/>
<rect x="146.0" y="408.5" width="23.0" height="19.5" fill="#888"/>
<rect x="171.0" y="368.0" width="23.0" height="60.0" fill="#888"/>
<rect x="196.0" y="393.9" width="23.0" height="34.1" fill="#888"/>
<rect x="221.0" y="381.0" width="23.0" height="47.0" fill="#888"/>
<rect x="246.0" y="406.9" width="23.0" height="21.1" fill="#888"/>
<rect x="271.0" y="406.9" width="23.0" height="21.1" fill="#888"/>
<rect x="296.0" y="418.3" width="23.0" height="9.7" fill="#888"/>
<line x1="70" y1="428" x2="320" y2="428" stroke="#333"/>
<text x="70" y="440" font-size="9" fill="#444">наклон 1.93, сдвиг -4.68; MCE10 0.753; лог-лосс 0.735; AUC 0.893</text>
<text x="450" y="40" font-size="12">Platt из calibration.pkl (in-sample)</text>
<text x="450" y="56" font-size="10" fill="#444">n=166, положительных 10 (6 исследований)</text>
<text x="450" y="69" font-size="10" fill="#444">ECE10 0.055 [0.03; 0.11]; Brier 0.037 [0.009; 0.077]</text>
<rect x="450" y="84" width="250" height="250" fill="none" stroke="#333"/>
<line x1="500.0" y1="84" x2="500.0" y2="334" stroke="#eee"/>
<line x1="450" y1="284.0" x2="700" y2="284.0" stroke="#eee"/>
<text x="500.0" y="346" text-anchor="middle" font-size="9">0.2</text>
<text x="446" y="287.0" text-anchor="end" font-size="9">0.2</text>
<line x1="550.0" y1="84" x2="550.0" y2="334" stroke="#eee"/>
<line x1="450" y1="234.0" x2="700" y2="234.0" stroke="#eee"/>
<text x="550.0" y="346" text-anchor="middle" font-size="9">0.4</text>
<text x="446" y="237.0" text-anchor="end" font-size="9">0.4</text>
<line x1="600.0" y1="84" x2="600.0" y2="334" stroke="#eee"/>
<line x1="450" y1="184.0" x2="700" y2="184.0" stroke="#eee"/>
<text x="600.0" y="346" text-anchor="middle" font-size="9">0.6</text>
<text x="446" y="187.0" text-anchor="end" font-size="9">0.6</text>
<line x1="650.0" y1="84" x2="650.0" y2="334" stroke="#eee"/>
<line x1="450" y1="134.0" x2="700" y2="134.0" stroke="#eee"/>
<text x="650.0" y="346" text-anchor="middle" font-size="9">0.8</text>
<text x="446" y="137.0" text-anchor="end" font-size="9">0.8</text>
<line x1="450" y1="334" x2="700" y2="84" stroke="#999" stroke-dasharray="4 3"/>
<polyline points="450.1,334.0 450.6,334.0 452.2,334.0 458.9,309.8 510.8,284.0" fill="none" stroke="#d9541e" stroke-width="1.5"/>
<rect x="446.1" y="330.0" width="8" height="8" fill="#d9541e" stroke="white"/>
<rect x="446.6" y="330.0" width="8" height="8" fill="#d9541e" stroke="white"/>
<rect x="448.2" y="330.0" width="8" height="8" fill="#d9541e" stroke="white"/>
<rect x="454.9" y="305.8" width="8" height="8" fill="#d9541e" stroke="white"/>
<rect x="506.8" y="280.0" width="8" height="8" fill="#d9541e" stroke="white"/>
<circle cx="453.7" cy="328.6" r="14.0" fill="#1f6fb2" fill-opacity="0.55" stroke="#1f6fb2"/>
<text x="469.7" y="331.6" font-size="8" fill="#1f6fb2">139</text>
<circle cx="485.2" cy="334.0" r="5.8" fill="#1f6fb2" fill-opacity="0.55" stroke="#1f6fb2"/>
<text x="493.0" y="337.0" font-size="8" fill="#1f6fb2">9</text>
<circle cx="522.2" cy="334.0" r="6.0" fill="#1f6fb2" fill-opacity="0.55" stroke="#1f6fb2"/>
<text x="530.2" y="337.0" font-size="8" fill="#1f6fb2">10</text>
<circle cx="540.2" cy="84.0" r="4.3" fill="#1f6fb2" fill-opacity="0.55" stroke="#1f6fb2"/>
<text x="546.5" y="87.0" font-size="8" fill="#1f6fb2">2</text>
<circle cx="555.8" cy="334.0" r="3.9" fill="#1f6fb2" fill-opacity="0.55" stroke="#1f6fb2"/>
<text x="561.8" y="337.0" font-size="8" fill="#1f6fb2">1</text>
<circle cx="582.0" cy="84.0" r="5.1" fill="#1f6fb2" fill-opacity="0.55" stroke="#1f6fb2"/>
<text x="589.1" y="87.0" font-size="8" fill="#1f6fb2">5</text>
<text x="575.0" y="358" text-anchor="middle" font-size="10">средняя предсказанная вероятность</text>
<text transform="translate(410,209.0) rotate(-90)" text-anchor="middle" font-size="10">доля положительных</text>
<rect x="451.0" y="368.0" width="23.0" height="60.0" fill="#888"/>
<rect x="476.0" y="424.1" width="23.0" height="3.9" fill="#888"/>
<rect x="501.0" y="423.7" width="23.0" height="4.3" fill="#888"/>
<rect x="526.0" y="427.1" width="23.0" height="0.9" fill="#888"/>
<rect x="551.0" y="427.6" width="23.0" height="0.4" fill="#888"/>
<rect x="576.0" y="425.8" width="23.0" height="2.2" fill="#888"/>
<rect x="601.0" y="428.0" width="23.0" height="0.0" fill="#888"/>
<rect x="626.0" y="428.0" width="23.0" height="0.0" fill="#888"/>
<rect x="651.0" y="428.0" width="23.0" height="0.0" fill="#888"/>
<rect x="676.0" y="428.0" width="23.0" height="0.0" fill="#888"/>
<line x1="450" y1="428" x2="700" y2="428" stroke="#333"/>
<text x="450" y="440" font-size="9" fill="#444">наклон 1.00, сдвиг 0.01; MCE10 0.639; лог-лосс 0.145; AUC 0.893</text>
<text x="830" y="40" font-size="12">Platt cross-fit (GroupKFold 5, зерно 0)</text>
<text x="830" y="56" font-size="10" fill="#444">n=166, положительных 10 (6 исследований)</text>
<text x="830" y="69" font-size="10" fill="#444">ECE10 0.013 [0.01; 0.08]; Brier 0.042 [0.010; 0.084]</text>
<rect x="830" y="84" width="250" height="250" fill="none" stroke="#333"/>
<line x1="880.0" y1="84" x2="880.0" y2="334" stroke="#eee"/>
<line x1="830" y1="284.0" x2="1080" y2="284.0" stroke="#eee"/>
<text x="880.0" y="346" text-anchor="middle" font-size="9">0.2</text>
<text x="826" y="287.0" text-anchor="end" font-size="9">0.2</text>
<line x1="930.0" y1="84" x2="930.0" y2="334" stroke="#eee"/>
<line x1="830" y1="234.0" x2="1080" y2="234.0" stroke="#eee"/>
<text x="930.0" y="346" text-anchor="middle" font-size="9">0.4</text>
<text x="826" y="237.0" text-anchor="end" font-size="9">0.4</text>
<line x1="980.0" y1="84" x2="980.0" y2="334" stroke="#eee"/>
<line x1="830" y1="184.0" x2="1080" y2="184.0" stroke="#eee"/>
<text x="980.0" y="346" text-anchor="middle" font-size="9">0.6</text>
<text x="826" y="187.0" text-anchor="end" font-size="9">0.6</text>
<line x1="1030.0" y1="84" x2="1030.0" y2="334" stroke="#eee"/>
<line x1="830" y1="134.0" x2="1080" y2="134.0" stroke="#eee"/>
<text x="1030.0" y="346" text-anchor="middle" font-size="9">0.8</text>
<text x="826" y="137.0" text-anchor="end" font-size="9">0.8</text>
<line x1="830" y1="334" x2="1080" y2="84" stroke="#999" stroke-dasharray="4 3"/>
<polyline points="830.0,309.8 830.5,334.0 831.9,334.0 839.0,334.0 885.5,284.0" fill="none" stroke="#d9541e" stroke-width="1.5"/>
<rect x="826.0" y="305.8" width="8" height="8" fill="#d9541e" stroke="white"/>
<rect x="826.5" y="330.0" width="8" height="8" fill="#d9541e" stroke="white"/>
<rect x="827.9" y="330.0" width="8" height="8" fill="#d9541e" stroke="white"/>
<rect x="835.0" y="330.0" width="8" height="8" fill="#d9541e" stroke="white"/>
<rect x="881.5" y="280.0" width="8" height="8" fill="#d9541e" stroke="white"/>
<circle cx="834.1" cy="328.8" r="14.0" fill="#1f6fb2" fill-opacity="0.55" stroke="#1f6fb2"/>
<text x="850.1" y="331.8" font-size="8" fill="#1f6fb2">143</text>
<circle cx="866.9" cy="334.0" r="5.1" fill="#1f6fb2" fill-opacity="0.55" stroke="#1f6fb2"/>
<text x="874.0" y="337.0" font-size="8" fill="#1f6fb2">5</text>
<circle cx="909.1" cy="250.7" r="6.6" fill="#1f6fb2" fill-opacity="0.55" stroke="#1f6fb2"/>
<text x="917.6" y="253.7" font-size="8" fill="#1f6fb2">15</text>
<circle cx="942.8" cy="209.0" r="4.3" fill="#1f6fb2" fill-opacity="0.55" stroke="#1f6fb2"/>
<text x="949.2" y="212.0" font-size="8" fill="#1f6fb2">2</text>
<circle cx="962.6" cy="84.0" r="3.9" fill="#1f6fb2" fill-opacity="0.55" stroke="#1f6fb2"/>
<text x="968.5" y="87.0" font-size="8" fill="#1f6fb2">1</text>
<text x="955.0" y="358" text-anchor="middle" font-size="10">средняя предсказанная вероятность</text>
<text transform="translate(790,209.0) rotate(-90)" text-anchor="middle" font-size="10">доля положительных</text>
<rect x="831.0" y="368.0" width="23.0" height="60.0" fill="#888"/>
<rect x="856.0" y="425.9" width="23.0" height="2.1" fill="#888"/>
<rect x="881.0" y="428.0" width="23.0" height="0.0" fill="#888"/>
<rect x="906.0" y="421.7" width="23.0" height="6.3" fill="#888"/>
<rect x="931.0" y="427.2" width="23.0" height="0.8" fill="#888"/>
<rect x="956.0" y="427.6" width="23.0" height="0.4" fill="#888"/>
<rect x="981.0" y="428.0" width="23.0" height="0.0" fill="#888"/>
<rect x="1006.0" y="428.0" width="23.0" height="0.0" fill="#888"/>
<rect x="1031.0" y="428.0" width="23.0" height="0.0" fill="#888"/>
<rect x="1056.0" y="428.0" width="23.0" height="0.0" fill="#888"/>
<line x1="830" y1="428" x2="1080" y2="428" stroke="#333"/>
<text x="830" y="440" font-size="9" fill="#444">наклон 0.14, сдвиг -2.09; MCE10 0.470; лог-лосс 0.315; AUC 0.719</text>
<text x="10" y="494" font-size="9" fill="#666">круги — 10 бинов равной ширины (число = n в бине); квадраты — 5 квантильных бинов; пунктир — идеальная калибровка; внизу — распределение предсказаний</text>
</svg>